<?xml version="1.0" encoding="UTF-8"?>
<svg version="1.1" xmlns="http://www.w3.org/2000/svg" width="48" height="48">
<path d="M0 0 C1.24245483 -0.00574036 1.24245483 -0.00574036 2.51000977 -0.01159668 C4.25831317 -0.01431425 6.00665734 -0.00696381 7.75488281 0.00976562 C10.42865777 0.03117918 13.09974596 0.00996056 15.7734375 -0.015625 C17.47396425 -0.01298169 19.17448934 -0.00785665 20.875 0 C22.07201538 -0.01214539 22.07201538 -0.01214539 23.29321289 -0.02453613 C26.65641796 0.03218782 29.0296463 0.2870472 31.93945312 2.02929688 C34.09319036 5.62634693 34.01007509 9.0208644 33.96875 13.09375 C33.9725769 13.92205322 33.97640381 14.75035645 33.98034668 15.60375977 C33.98306425 17.35206317 33.97571381 19.10040734 33.95898438 20.84863281 C33.93757082 23.52240777 33.95878944 26.19349596 33.984375 28.8671875 C33.98173169 30.56771425 33.97660665 32.26823934 33.96875 33.96875 C33.97684692 34.76676025 33.98494385 35.56477051 33.99328613 36.38696289 C33.93656218 39.75016796 33.6817028 42.1233963 31.93945312 45.03320312 C28.34240307 47.18694036 24.9478856 47.10382509 20.875 47.0625 C20.04669678 47.0663269 19.21839355 47.07015381 18.36499023 47.07409668 C16.61668683 47.07681425 14.86834266 47.06946381 13.12011719 47.05273438 C10.44634223 47.03132082 7.77525404 47.05253944 5.1015625 47.078125 C3.40103575 47.07548169 1.70051066 47.07035665 0 47.0625 C-0.79801025 47.07059692 -1.59602051 47.07869385 -2.41821289 47.08703613 C-5.78141796 47.03031218 -8.1546463 46.7754528 -11.06445312 45.03320312 C-13.21819036 41.43615307 -13.13507509 38.0416356 -13.09375 33.96875 C-13.0975769 33.14044678 -13.10140381 32.31214355 -13.10534668 31.45874023 C-13.10806425 29.71043683 -13.10071381 27.96209266 -13.08398438 26.21386719 C-13.06257082 23.54009223 -13.08378944 20.86900404 -13.109375 18.1953125 C-13.10673169 16.49478575 -13.10160665 14.79426066 -13.09375 13.09375 C-13.10589539 11.89673462 -13.10589539 11.89673462 -13.11828613 10.67553711 C-13.06156218 7.31233204 -12.8067028 4.9391037 -11.06445312 2.02929688 C-7.46740307 -0.12444036 -4.0728856 -0.04132509 0 0 Z " fill="#76EAFB" transform="translate(13.5625,0.46875)"/>
<path d="M0 0 C1.24245483 -0.00574036 1.24245483 -0.00574036 2.51000977 -0.01159668 C4.25831317 -0.01431425 6.00665734 -0.00696381 7.75488281 0.00976562 C10.42865777 0.03117918 13.09974596 0.00996056 15.7734375 -0.015625 C17.47396425 -0.01298169 19.17448934 -0.00785665 20.875 0 C22.07201538 -0.01214539 22.07201538 -0.01214539 23.29321289 -0.02453613 C26.65641796 0.03218782 29.0296463 0.2870472 31.93945312 2.02929688 C34.09319036 5.62634693 34.01007509 9.0208644 33.96875 13.09375 C33.9725769 13.92205322 33.97640381 14.75035645 33.98034668 15.60375977 C33.98306425 17.35206317 33.97571381 19.10040734 33.95898438 20.84863281 C33.93757082 23.52240777 33.95878944 26.19349596 33.984375 28.8671875 C33.98173169 30.56771425 33.97660665 32.26823934 33.96875 33.96875 C33.97684692 34.76676025 33.98494385 35.56477051 33.99328613 36.38696289 C33.93656218 39.75016796 33.6817028 42.1233963 31.93945312 45.03320312 C28.34240307 47.18694036 24.9478856 47.10382509 20.875 47.0625 C20.04669678 47.0663269 19.21839355 47.07015381 18.36499023 47.07409668 C16.61668683 47.07681425 14.86834266 47.06946381 13.12011719 47.05273438 C10.44634223 47.03132082 7.77525404 47.05253944 5.1015625 47.078125 C3.40103575 47.07548169 1.70051066 47.07035665 0 47.0625 C-0.79801025 47.07059692 -1.59602051 47.07869385 -2.41821289 47.08703613 C-5.78141796 47.03031218 -8.1546463 46.7754528 -11.06445312 45.03320312 C-13.21819036 41.43615307 -13.13507509 38.0416356 -13.09375 33.96875 C-13.0975769 33.14044678 -13.10140381 32.31214355 -13.10534668 31.45874023 C-13.10806425 29.71043683 -13.10071381 27.96209266 -13.08398438 26.21386719 C-13.06257082 23.54009223 -13.08378944 20.86900404 -13.109375 18.1953125 C-13.10673169 16.49478575 -13.10160665 14.79426066 -13.09375 13.09375 C-13.10589539 11.89673462 -13.10589539 11.89673462 -13.11828613 10.67553711 C-13.06156218 7.31233204 -12.8067028 4.9391037 -11.06445312 2.02929688 C-7.46740307 -0.12444036 -4.0728856 -0.04132509 0 0 Z M-7.5625 5.53125 C-7.5625 17.41125 -7.5625 29.29125 -7.5625 41.53125 C4.3175 41.53125 16.1975 41.53125 28.4375 41.53125 C28.4375 29.65125 28.4375 17.77125 28.4375 5.53125 C16.5575 5.53125 4.6775 5.53125 -7.5625 5.53125 Z " fill="#0C098B" transform="translate(13.5625,0.46875)"/>
<path d="M0 0 C3.4375 1.6875 3.4375 1.6875 6 4 C6.78375 4.70125 7.5675 5.4025 8.375 6.125 C10.77513898 10.37139973 10.77020775 14.23433956 10 19 C8.5 21.6875 8.5 21.6875 6 23 C2.125 22.75 2.125 22.75 0.0234375 22.34765625 C-2.193119 21.88841674 -2.193119 21.88841674 -5.25 22.1875 C-8 22 -8 22 -10.375 20.375 C-12.48706506 17.28813568 -12.61195145 15.6717087 -12 12 C-10.375 9.625 -10.375 9.625 -8 8 C-4.29241009 7.38206835 -2.7064798 7.49802751 0.375 9.6875 C2.27258004 12.38790237 2.35882213 13.77060081 2 17 C2.99 17 3.98 17 5 17 C4.05282087 11.60526 4.05282087 11.60526 1.375 7 C-2.1228658 5.5272144 -5.31947722 5.24203095 -9 6 C-11.9838283 7.98921886 -13.60276841 9.38502568 -14.4765625 12.9375 C-14.75215937 16.76684601 -14.21905772 18.65680957 -12.125 21.9375 C-7.85700901 24.75437405 -4.02524947 24.89266457 1 25 C0.67 26.65 0.34 28.3 0 30 C-9.31211166 30.90932013 -9.31211166 30.90932013 -13.21875 28.8046875 C-17.06573856 25.5608285 -19.55463668 22.53817678 -20.44140625 17.484375 C-20.68760237 11.92510774 -20.35310563 8.66890961 -16.625 4.375 C-11.57594652 -0.71560948 -6.98934286 -0.71178598 0 0 Z " fill="#131793" transform="translate(29,9)"/>
<path d="M0 0 C2.8100346 1.79363911 4.50940468 3.01880935 6 6 C6.039992 7.99960012 6.04346799 10.00047242 6 12 C5.01 12 4.02 12 3 12 C2.71125 10.865625 2.4225 9.73125 2.125 8.5625 C1.75375 7.386875 1.3825 6.21125 1 5 C-1.79870027 3.60064987 -3.90498792 3.74734595 -7 4 C-9 5 -9 5 -10 7 C-10.39015561 10.12124489 -10.55877549 12.09975061 -8.875 14.8125 C-6.92814913 16.21711241 -6.92814913 16.21711241 -3.9375 16.5 C-2.968125 16.665 -1.99875 16.83 -1 17 C-0.34 17.99 0.32 18.98 1 20 C-6.99651568 20.6271777 -6.99651568 20.6271777 -11 18.125 C-14.08084718 14.85159987 -14.33387487 12.53873525 -14.29296875 8.0390625 C-13.83745033 4.86865433 -12.24684343 3.1807598 -10 1 C-6.79826746 -0.60086627 -3.47422941 -0.49917089 0 0 Z " fill="#71DFF6" transform="translate(28,14)"/>
</svg>
