<svg xmlns="http://www.w3.org/2000/svg" version="1.1" xmlns:xlink="http://www.w3.org/1999/xlink" viewBox="0 0 9.681669171297084 3.3309319822420598"><g transform="matrix(0.7544040847937555,0,0,0.7544040847937555,1.5979208447586397,1.261482603713974)"><rect width="10.76605260075868" height="10.76605260075868" x="-1.084383429461595" y="-4.84752630037934" fill="#fffef5"></rect><g transform="matrix(1,0,0,1,0,0)" clip-path="url(#SvgjsClipPath100281)"><g clip-path="url(#SvgjsClipPath100276dc4b7016-1815-4fc2-82ac-73f1b587018b)"><path d=" M 8.39456254278512 -0.5877742763902319 L 6.389658013503494 -0.5877742763902319 C 6.277665497782802 -0.5877742763902319 6.186934814453125 -0.49706896517557986 6.186934814453125 -0.38505107733986266 L 6.186934814453125 1.4560510773398623 C 6.186934814453125 1.568043593060555 6.277640125667777 1.658774276390232 6.389658013503494 1.658774276390232 L 8.095653655674681 1.658774276390232 L 8.095653655674681 1.4654895041291913 C 8.095653655674681 1.2955217055761974 8.234007798906429 1.1571421902294245 8.404000969574449 1.1571421902294245 L 8.597285741835488 1.1571421902294245 L 8.597285741835488 -0.38505107733986244 C 8.597285741835488 -0.49706896517557986 8.506580430620836 -0.5877742763902319 8.39456254278512 -0.5877742763902319 Z M 8.19183934373475 0.580205666674187 C 8.19183934373475 0.6210547718645618 8.18514110536813 0.6571339194302219 8.171871489210014 0.6884684814861923 C 8.158500384591798 0.7198791598872383 8.14086676464937 0.7461392989381936 8.118970629382728 0.7673250149841335 C 8.096973005655986 0.7885107310300734 8.071423285825734 0.8049264894512984 8.042448330467096 0.8168006392830349 C 8.01334651453333 0.8285479285396453 7.983965605334292 0.8344342592254634 7.954153370179824 0.8344342592254634 L 7.891205152802608 0.8344342592254634 C 7.829982239247096 0.8344342592254634 7.775153098677903 0.8075651894139064 7.737653112670839 0.7649907804018266 C 7.700153126663775 0.8075651894139064 7.645222497634482 0.8344342592254634 7.584101072539069 0.8344342592254634 L 7.169013270728801 0.8344342592254634 C 7.137602592327755 0.8344342592254634 7.109008218694492 0.8238033430299563 7.083052545023838 0.8026176269840164 C 7.057198359813284 0.781431910938077 7.04423320903547 0.7505286748375324 7.04423320903547 0.7096795696471574 L 7.04423320903547 0.35893545154048556 C 7.04423320903547 0.31818783481021107 7.057198359813285 0.28718311024956633 7.083052545023838 0.26599739420362667 C 7.109008218694492 0.24481167815768679 7.13757722021273 0.23428225042227968 7.169013270728801 0.23428225042227968 L 7.619977243184528 0.23428225042227968 C 7.651286433125474 0.23428225042227968 7.678764433697633 0.245217631998088 7.70238587278598 0.2672152557248304 C 7.725905823414227 0.28921287945157237 7.737653112670838 0.319811650171816 7.737653112670838 0.35893545154048556 L 7.737653112670838 0.6225770987660659 L 7.8576632167394544 0.6225770987660659 C 7.881183167367701 0.6225770987660659 7.900846556512136 0.6127327181363358 7.91655189571266 0.5931708174520012 C 7.932155746453082 0.5735074283075661 7.940071846340906 0.5480591969374133 7.940071846340906 0.5166485185363674 L 7.940071846340906 0.1730339647517426 C 7.940071846340906 0.14172477481079682 7.933373607974286 0.11617505498054403 7.92000250335607 0.09651166583610882 C 7.906732887197954 0.0769497651517741 7.884329309630811 0.06710538452204406 7.85299474757484 0.06710538452204406 L 6.931327297173874 0.06710538452204406 C 6.899916618772829 0.06710538452204406 6.877513041205685 0.0769497651517741 6.864218052932545 0.09651166583610882 C 6.850846948314328 0.11617505498054403 6.844250198407808 0.14172477481079704 6.844250198407808 0.1730339647517426 L 6.844250198407808 0.8979660352482575 C 6.844250198407808 0.9293767136493036 6.852064809835532 0.9548249450194564 6.867770149036055 0.9743868457037912 C 6.883373999776477 0.9940502348482261 6.903037388920913 1.0038946154779562 6.926557339549159 1.0038946154779562 L 8.191839343734749 1.0038946154779562 C 8.191839343734749 1.0728306520010917 8.16385390086209 1.1351445665026823 8.118767652462527 1.18025618701727 C 8.07365603194794 1.2254692959919584 8.011215256871223 1.2533278782894937 7.942406080923213 1.2533278782894937 L 6.83006718610879 1.2533278782894937 C 6.798757996167844 1.2533278782894937 6.768945761013379 1.2477460129839766 6.740655852760417 1.2368106314081684 C 6.7123659445074555 1.22587524983236 6.6872475506326285 1.2097385846764104 6.665351415365987 1.188552868630471 C 6.643353791639244 1.167367152584531 6.625720171696816 1.141512967373977 6.6124505555387 1.1109141966537333 C 6.599079450920485 1.0803154259334902 6.592381212553864 1.044616860093206 6.592381212553864 1.0038692433629315 L 6.592381212553864 0.06710538452204406 C 6.592381212553864 0.027880094693273905 6.599079450920485 -0.007387145191583677 6.6124505555387 -0.0388231957076548 C 6.625720171696816 -0.07013238564860036 6.643353791639244 -0.09649401315965589 6.665351415365987 -0.1176797292055956 C 6.6872475506326285 -0.1388654452515355 6.7123913166224805 -0.15487524983235923 6.740655852760417 -0.165937491983293 C 6.768945761013378 -0.17687287355910147 6.798732624052819 -0.18235325040451816 6.83006718610879 -0.18235325040451816 L 7.954153370179824 -0.18235325040451816 C 7.983940233219265 -0.18235325040451816 8.01334651453333 -0.17687287355910147 8.042448330467094 -0.165937491983293 C 8.071448657940756 -0.1549006219473842 8.096973005655986 -0.13886544525153527 8.118970629382728 -0.1176797292055956 C 8.14086676464937 -0.09649401315965589 8.158500384591798 -0.07013238564860036 8.171871489210014 -0.0388231957076548 C 8.18514110536813 -0.007412517306608746 8.191839343734749 0.027880094693273905 8.191839343734749 0.06710538452204406 L 8.191839343734749 0.580205666674187 Z" fill="#a5497e" transform="matrix(1,0,0,1,0,0)" fill-rule="nonzero"></path></g><g clip-path="url(#SvgjsClipPath100276dc4b7016-1815-4fc2-82ac-73f1b587018b)"><path d=" M 7.488194477744276 0.44598717819152656 L 7.293793332422132 0.44598717819152656 C 7.265503424169171 0.44598717819152656 7.251421900330253 0.4633163327536547 7.251421900330253 0.49777166495770997 L 7.251421900330253 0.570741867769833 C 7.251421900330253 0.6052986884339886 7.264691516488368 0.622526354536016 7.291357609379724 0.622526354536016 L 7.488194477744276 0.622526354536016 C 7.517981340783717 0.622526354536016 7.532900144418463 0.6052986884339886 7.532900144418463 0.570741867769833 L 7.532900144418463 0.49777166495770997 C 7.532900144418463 0.4633417048686792 7.518006712898742 0.44598717819152656 7.488194477744276 0.44598717819152656 Z" fill="#a5497e" transform="matrix(1,0,0,1,0,0)" fill-rule="nonzero"></path></g><g clip-path="url(#SvgjsClipPath100276dc4b7016-1815-4fc2-82ac-73f1b587018b)"><path d=" M 8.118970629382728 -0.1176797292055956 C 8.096973005655986 -0.1388654452515355 8.071423285825732 -0.15487524983235923 8.042448330467094 -0.165937491983293 C 8.01334651453333 -0.17687287355910147 7.983965605334291 -0.18235325040451816 7.954153370179824 -0.18235325040451816 L 6.83006718610879 -0.18235325040451816 C 6.798757996167844 -0.18235325040451816 6.768945761013379 -0.17687287355910147 6.740655852760417 -0.165937491983293 C 6.7123659445074555 -0.1549006219473842 6.6872475506326285 -0.13886544525153527 6.665351415365987 -0.1176797292055956 C 6.643353791639244 -0.09649401315965589 6.625720171696816 -0.07013238564860036 6.6124505555387 -0.0388231957076548 C 6.599079450920485 -0.007412517306608746 6.592381212553864 0.027880094693273905 6.592381212553864 0.06710538452204406 L 6.592381212553864 1.003869243362931 C 6.592381212553864 1.0446168600932053 6.599079450920485 1.0802900538184645 6.6124505555387 1.1109141966537333 C 6.625720171696816 1.1415129673739766 6.643353791639244 1.1673671525845306 6.665351415365987 1.1885528686304705 C 6.6872475506326285 1.2097385846764104 6.7123913166224805 1.2258498777173346 6.740655852760417 1.2368106314081684 C 6.768945761013378 1.2477460129839766 6.798732624052819 1.2533278782894937 6.83006718610879 1.2533278782894937 L 7.942406080923213 1.2533278782894937 C 8.011240628986249 1.2533278782894937 8.07365603194794 1.2254439238769332 8.118767652462527 1.1802561870172705 C 8.163879272977114 1.1351445665026827 8.19183934373475 1.072805279886067 8.19183934373475 1.0038946154779567 L 6.92655733954916 1.0038946154779567 C 6.903037388920913 1.0038946154779567 6.883373999776478 0.9940502348482265 6.867770149036056 0.9743868457037916 C 6.852064809835532 0.9548249450194568 6.844250198407808 0.9293767136493039 6.844250198407808 0.8979660352482579 L 6.844250198407808 0.1730339647517426 C 6.844250198407808 0.14172477481079682 6.850846948314329 0.11617505498054403 6.864218052932545 0.09651166583610882 C 6.877487669090661 0.0769497651517741 6.899891246657804 0.06710538452204406 6.931327297173874 0.06710538452204406 L 7.85299474757484 0.06710538452204406 C 7.884303937515786 0.06710538452204406 7.906707515082929 0.0769497651517741 7.92000250335607 0.09651166583610882 C 7.933373607974286 0.11617505498054403 7.940071846340906 0.14172477481079704 7.940071846340906 0.1730339647517426 L 7.940071846340906 0.5166485185363674 C 7.940071846340906 0.5480591969374133 7.932155746453082 0.5735074283075661 7.91655189571266 0.5931708174520012 C 7.900846556512136 0.6127327181363358 7.881183167367701 0.6225770987660659 7.8576632167394544 0.6225770987660659 L 7.737653112670838 0.6225770987660659 L 7.737653112670838 0.35893545154048556 C 7.737653112670838 0.319811650171816 7.725905823414227 0.28921287945157237 7.70238587278598 0.2672152557248304 C 7.6787644336976335 0.24521763199808821 7.6513118052405 0.23428225042227968 7.619977243184528 0.23428225042227968 L 7.169013270728801 0.23428225042227968 C 7.137602592327755 0.23428225042227968 7.109008218694492 0.24481167815768679 7.083052545023838 0.26599739420362667 C 7.057198359813284 0.28718311024956633 7.04423320903547 0.31818783481021107 7.04423320903547 0.35893545154048556 L 7.04423320903547 0.7096541975321322 C 7.04423320903547 0.7505033027225072 7.057198359813285 0.7814065388230513 7.083052545023838 0.8025922548689912 C 7.109008218694492 0.8237779709149311 7.13757722021273 0.8344088871104383 7.169013270728801 0.8344088871104383 L 7.584075700424044 0.8344088871104383 C 7.645197125519456 0.8344088871104383 7.700127754548748 0.8075398172988812 7.737627740555813 0.7649654082868009 C 7.775127726562877 0.8075398172988812 7.82995686713207 0.8344088871104383 7.891179780687582 0.8344088871104383 L 7.954127998064799 0.8344088871104383 C 7.98391486110424 0.8344088871104383 8.013321142418304 0.8285225564246204 8.042422958352068 0.8167752671680093 C 8.071423285825732 0.804926489451298 8.09694763354096 0.7884853589150478 8.118945257267702 0.7672996428691083 C 8.140841392534345 0.7461139268231685 8.158475012476773 0.7198537877722133 8.17184611709499 0.6884431093711672 C 8.185115733253104 0.6571339194302215 8.191813971619725 0.6210293997495357 8.191813971619725 0.5801802945591614 L 8.191813971619725 0.06710538452204406 C 8.191813971619725 0.027880094693273905 8.185115733253104 -0.007387145191583677 8.17184611709499 -0.0388231957076548 C 8.158500384591798 -0.07013238564860036 8.140866764649369 -0.09649401315965589 8.118970629382728 -0.1176797292055956 Z M 7.532900144418463 0.5707672398848578 C 7.532900144418463 0.6053240605490133 7.518006712898742 0.6225517266510412 7.488194477744276 0.6225517266510412 L 7.291357609379724 0.6225517266510412 C 7.264691516488368 0.6225517266510412 7.251421900330253 0.6053240605490133 7.251421900330253 0.5707672398848578 L 7.251421900330253 0.4977970370727347 C 7.251421900330253 0.4633417048686792 7.26550342416917 0.44601255030655174 7.293793332422132 0.44601255030655174 L 7.488194477744276 0.44601255030655174 C 7.517981340783717 0.44601255030655174 7.532900144418463 0.46334170486867965 7.532900144418463 0.4977970370727347 L 7.532900144418463 0.5707672398848578 Z" fill="#c771a3" transform="matrix(1,0,0,1,0,0)" fill-rule="nonzero"></path></g><g clip-path="url(#SvgjsClipPath100276dc4b7016-1815-4fc2-82ac-73f1b587018b)"><path d=" M 8.474941403184566 1.2585037897546092 L 8.197015255199867 1.5364299377393082 L 8.197015255199867 1.4654895041291913 C 8.197015255199867 1.4166228105908922 8.214039944381692 1.3716380506514299 8.242532829554856 1.3362439501914463 C 8.251971256344184 1.324293684014635 8.262805149459892 1.3134344187839018 8.274755415636704 1.3040213641095981 C 8.310225632441762 1.2755284789364358 8.35513427603615 1.2585037897546087 8.404000969574449 1.2585037897546087 L 8.474941403184566 1.2585037897546087 Z" fill="#390c14" transform="matrix(1,0,0,1,0,0)" fill-rule="nonzero"></path></g></g><g><path d=" M 0.033 0.5294999999999997 Q 0.033 0.4319999999999997 0.06975 0.3382499999999997 Q 0.1065 0.24449999999999972 0.177 0.1679999999999997 Q 0.2475 0.09149999999999969 0.34875 0.045749999999999735 Q 0.45 -2.220446049250313e-16 0.5775 -2.220446049250313e-16 Q 0.7305 -2.220446049250313e-16 0.8445 0.06374999999999975 Q 0.9585 0.12749999999999972 1.014 0.2324999999999997 L 0.7905 0.39149999999999974 Q 0.771 0.33899999999999975 0.7342500000000001 0.31049999999999967 Q 0.6975 0.2819999999999997 0.65475 0.2707499999999997 Q 0.612 0.25949999999999973 0.5715 0.25949999999999973 Q 0.5085000000000001 0.25949999999999973 0.46275 0.28424999999999967 Q 0.417 0.3089999999999997 0.38775 0.3494999999999997 Q 0.3585 0.3899999999999997 0.34425 0.43949999999999967 Q 0.33 0.48899999999999977 0.33 0.5384999999999998 Q 0.33 0.5939999999999996 0.34650000000000003 0.6449999999999998 Q 0.363 0.6959999999999997 0.3945 0.7357499999999997 Q 0.426 0.7754999999999997 0.47175 0.7979999999999997 Q 0.5175 0.8204999999999998 0.5745 0.8204999999999998 Q 0.615 0.8204999999999998 0.657 0.8077499999999997 Q 0.6990000000000001 0.7949999999999997 0.7335 0.7664999999999997 Q 0.768 0.7379999999999998 0.786 0.6899999999999997 L 1.0245 0.8324999999999997 Q 0.993 0.9104999999999998 0.9195 0.9659999999999997 Q 0.846 1.0214999999999996 0.753 1.0507499999999996 Q 0.66 1.0799999999999996 0.5685 1.0799999999999996 Q 0.45 1.0799999999999996 0.35175 1.0327499999999998 Q 0.2535 0.9854999999999997 0.18225 0.9067499999999997 Q 0.111 0.8279999999999997 0.07200000000000001 0.7297499999999997 Q 0.033 0.6314999999999997 0.033 0.5294999999999997 M 1.595989013671875 1.0799999999999996 Q 1.474489013671875 1.0799999999999996 1.375489013671875 1.0342499999999997 Q 1.276489013671875 0.9884999999999997 1.205239013671875 0.9112499999999997 Q 1.1339890136718749 0.8339999999999997 1.095739013671875 0.7372499999999997 Q 1.0574890136718749 0.6404999999999997 1.0574890136718749 0.5369999999999997 Q 1.0574890136718749 0.43049999999999977 1.0979890136718748 0.3344999999999997 Q 1.138489013671875 0.2384999999999997 1.211239013671875 0.16274999999999973 Q 1.283989013671875 0.08699999999999974 1.383739013671875 0.04349999999999965 Q 1.483489013671875 -2.220446049250313e-16 1.6019890136718749 -2.220446049250313e-16 Q 1.723489013671875 -2.220446049250313e-16 1.822489013671875 0.045749999999999735 Q 1.921489013671875 0.09149999999999969 1.991989013671875 0.16949999999999976 Q 2.062489013671875 0.24749999999999972 2.100739013671875 0.3442499999999997 Q 2.1389890136718748 0.4409999999999997 2.1389890136718748 0.5429999999999997 Q 2.1389890136718748 0.6479999999999997 2.099239013671875 0.7439999999999998 Q 2.059489013671875 0.8399999999999997 1.986739013671875 0.9157499999999997 Q 1.9139890136718751 0.9914999999999997 1.814989013671875 1.0357499999999997 Q 1.715989013671875 1.0799999999999996 1.595989013671875 1.0799999999999996 M 1.354489013671875 0.5399999999999997 Q 1.354489013671875 0.5939999999999996 1.369489013671875 0.6442499999999998 Q 1.384489013671875 0.6944999999999997 1.4144890136718749 0.7342499999999997 Q 1.4444890136718749 0.7739999999999998 1.490239013671875 0.7972499999999998 Q 1.535989013671875 0.8204999999999998 1.598989013671875 0.8204999999999998 Q 1.661989013671875 0.8204999999999998 1.708489013671875 0.7964999999999998 Q 1.7549890136718749 0.7724999999999997 1.784239013671875 0.7312499999999997 Q 1.8134890136718749 0.6899999999999997 1.827739013671875 0.6397499999999997 Q 1.841989013671875 0.5894999999999997 1.841989013671875 0.5369999999999997 Q 1.841989013671875 0.48299999999999976 1.826989013671875 0.43349999999999966 Q 1.8119890136718748 0.3839999999999997 1.781989013671875 0.3442499999999997 Q 1.751989013671875 0.30449999999999966 1.705489013671875 0.2819999999999997 Q 1.658989013671875 0.25949999999999973 1.5974890136718751 0.25949999999999973 Q 1.534489013671875 0.25949999999999973 1.488739013671875 0.28349999999999975 Q 1.442989013671875 0.30749999999999966 1.412989013671875 0.3472499999999997 Q 1.382989013671875 0.3869999999999997 1.368739013671875 0.4372499999999997 Q 1.354489013671875 0.4874999999999997 1.354489013671875 0.5399999999999997 M 2.268010986328125 1.0709999999999997 L 2.268010986328125 0.005999999999999783 L 2.998510986328125 0.005999999999999783 L 2.998510986328125 0.2609999999999997 L 2.560510986328125 0.2609999999999997 L 2.560510986328125 0.4379999999999997 L 2.917510986328125 0.4379999999999997 L 2.917510986328125 0.6749999999999997 L 2.560510986328125 0.6749999999999997 L 2.560510986328125 1.0709999999999997 L 2.268010986328125 1.0709999999999997 M 3.1169934082031245 1.0709999999999997 L 3.1169934082031245 0.005999999999999783 L 3.8474934082031247 0.005999999999999783 L 3.8474934082031247 0.2609999999999997 L 3.4094934082031245 0.2609999999999997 L 3.4094934082031245 0.4379999999999997 L 3.7664934082031247 0.4379999999999997 L 3.7664934082031247 0.6749999999999997 L 3.4094934082031245 0.6749999999999997 L 3.4094934082031245 1.0709999999999997 L 3.1169934082031245 1.0709999999999997 M 4.724975830078125 0.8159999999999997 L 4.724975830078125 1.0709999999999997 L 3.9659758300781247 1.0709999999999997 L 3.9659758300781247 0.005999999999999783 L 4.7114758300781245 0.005999999999999783 L 4.7114758300781245 0.2609999999999997 L 4.258475830078125 0.2609999999999997 L 4.258475830078125 0.4109999999999997 L 4.645475830078125 0.4109999999999997 L 4.645475830078125 0.6479999999999997 L 4.258475830078125 0.6479999999999997 L 4.258475830078125 0.8159999999999997 L 4.724975830078125 0.8159999999999997 M 4.865953125 1.0709999999999997 L 4.865953125 0.005999999999999783 L 5.354953125 0.005999999999999783 Q 5.432953125 0.005999999999999783 5.498953125 0.037499999999999645 Q 5.564953125 0.06899999999999973 5.612953125 0.12224999999999975 Q 5.660953125 0.17549999999999966 5.687203125 0.24149999999999971 Q 5.713453125 0.30749999999999966 5.713453125 0.37499999999999967 Q 5.713453125 0.43649999999999967 5.695453125 0.4934999999999997 Q 5.6774531249999995 0.5504999999999998 5.642953125 0.5977499999999998 Q 5.608453125 0.6449999999999998 5.560453125 0.6794999999999998 L 5.785453125 1.0709999999999997 L 5.464453125 1.0709999999999997 L 5.276953125 0.7439999999999998 L 5.158453125 0.7439999999999998 L 5.158453125 1.0709999999999997 L 4.865953125 1.0709999999999997 M 5.158453125 0.48899999999999977 L 5.342953125 0.48899999999999977 Q 5.360953125 0.48899999999999977 5.377453125 0.4754999999999997 Q 5.393953125 0.46199999999999974 5.405203125 0.43649999999999967 Q 5.416453125 0.4109999999999997 5.416453125 0.37499999999999967 Q 5.416453125 0.3374999999999997 5.403703125 0.31274999999999975 Q 5.390953125 0.2879999999999997 5.372203125 0.27449999999999974 Q 5.353453125 0.2609999999999997 5.335453125 0.2609999999999997 L 5.158453125 0.2609999999999997 L 5.158453125 0.48899999999999977" fill="#390c14" fill-rule="nonzero"></path></g><g></g></g><defs><clipPath id="SvgjsClipPath100281"><path d=" M 6.186934814453125 -0.5877742763902323 h 2.410350927382364 v 2.2465485527804643 h -2.410350927382364 Z"></path></clipPath><clipPath id="SvgjsClipPath100276dc4b7016-1815-4fc2-82ac-73f1b587018b"><path d=" M 6.186934814453125 -0.587774276390232 L 8.597285741835488 -0.587774276390232 L 8.597285741835488 1.658774276390232 L 6.186934814453125 1.658774276390232 Z"></path></clipPath></defs></svg>